<?xml version="1.0" encoding="UTF-8" standalone="no"?>
<?xml-stylesheet href="../inc/css/mapStyle.css"?><!-- Created with Inkscape (http://www.inkscape.org/) -->

<svg
   xmlns:dc="http://purl.org/dc/elements/1.1/"
   xmlns:cc="http://creativecommons.org/ns#"
   xmlns:rdf="http://www.w3.org/1999/02/22-rdf-syntax-ns#"
   xmlns:svg="http://www.w3.org/2000/svg"
   xmlns="http://www.w3.org/2000/svg"
   xmlns:xlink="http://www.w3.org/1999/xlink"
   xmlns:sodipodi="http://sodipodi.sourceforge.net/DTD/sodipodi-0.dtd"
   xmlns:inkscape="http://www.inkscape.org/namespaces/inkscape"
   width="297mm"
   height="210mm"
   viewBox="0 0 297 210"
   version="1.1"
   id="svg16"
   inkscape:version="0.92.4 (5da689c313, 2019-01-14)"
   sodipodi:docname="Campus Map Entire.svg">
  <defs
     id="defs10">
    <symbol
       id="Parking_Inv">
      <title
         id="title4420">Parking</title>
      <rect
         x="0.13229166"
         y="0.13229166"
         width="18.785418"
         height="18.785418"
         ry="1.5875"
         style="stroke:#ffffff;stroke-width:0.26458332"
         id="rect4422" />
      <path
         inkscape:connector-curvature="0"
         d="M 6.6145833,15.875 V 3.96875 H 10.31875 a 3.3072917,3.3072917 0 0 1 0,6.614583 H 7.9375"
         style="fill:none;stroke:#ffffff;stroke-width:2.64583325"
         id="path4424" />
    </symbol>
  </defs>
  <sodipodi:namedview
     id="base"
     pagecolor="#ffffff"
     bordercolor="#666666"
     borderopacity="1.0"
     inkscape:pageopacity="0.0"
     inkscape:pageshadow="2"
     inkscape:zoom="0.7071068"
     inkscape:cx="442.57722"
     inkscape:cy="681.97975"
     inkscape:document-units="mm"
     inkscape:current-layer="Template"
     showgrid="false"
     inkscape:window-width="2560"
     inkscape:window-height="1377"
     inkscape:window-x="-8"
     inkscape:window-y="-8"
     inkscape:window-maximized="1">
    <inkscape:grid
       type="xygrid"
       id="grid31" />
  </sodipodi:namedview>
  <metadata
     id="metadata13">
    <rdf:RDF>
      <cc:Work
         rdf:about="">
        <dc:format>image/svg+xml</dc:format>
        <dc:type
           rdf:resource="http://purl.org/dc/dcmitype/StillImage" />
        <dc:title />
      </cc:Work>
    </rdf:RDF>
  </metadata>
  <g
     inkscape:label="Template"
     inkscape:groupmode="layer"
     id="Template"
     transform="translate(0,-87)"
     style="display:inline" />
  <g
     inkscape:groupmode="layer"
     id="Ground"
     inkscape:label="Ground"
     transform="translate(0,-87)"
     style="display:inline">
    <rect
       style="opacity:0.797;fill:#f8dec5;fill-opacity:0.00505051;stroke-width:0.46721348"
       id="rect899"
       width="301.79358"
       height="213.37979"
       x="-3.4293017"
       y="86.611328" />
    <text
       xml:space="preserve"
       style="font-style:normal;font-variant:normal;font-weight:bold;font-stretch:normal;font-size:9.96731377px;line-height:1.25;font-family:'Myanmar Text';-inkscape-font-specification:'Myanmar Text Bold';letter-spacing:0px;word-spacing:0px;fill:#ffffff;fill-opacity:0.24747476;stroke:none;stroke-width:0.24918287"
       x="69.706078"
       y="104.76849"
       id="text6354"><tspan
         sodipodi:role="line"
         id="tspan6352"
         x="69.706078"
         y="104.76849"
         style="font-style:normal;font-variant:normal;font-weight:bold;font-stretch:normal;font-family:'Myanmar Text';-inkscape-font-specification:'Myanmar Text Bold';fill:#ffffff;fill-opacity:0.24747476;stroke-width:0.24918287">THE UNIVERSITY OF KENT</tspan></text>
    <path
       style="display:inline;fill:#cfe4a4;fill-opacity:1;stroke:#cae09b;stroke-width:0.09203061;stroke-linecap:butt;stroke-linejoin:miter;stroke-miterlimit:4;stroke-dasharray:none;stroke-opacity:1"
       d="m 125.34865,173.3873 h 16.50128 l 8.41716,2.25536 v 1.90762 l -24.97075,24.97075 z"
       id="path1032"
       inkscape:connector-curvature="0"
       sodipodi:nodetypes="cccccc" />
    <path
       style="opacity:1;vector-effect:none;fill:#cfe4a4;fill-opacity:1;stroke:#cae09b;stroke-width:0.09203061;stroke-linecap:butt;stroke-linejoin:miter;stroke-miterlimit:4;stroke-dasharray:none;stroke-dashoffset:0;stroke-opacity:1"
       d="m 151.77207,179.46346 2.45278,3.44308 v 23.7443 h -28.69246 v -1.00249 z"
       id="path1049"
       inkscape:connector-curvature="0"
       sodipodi:nodetypes="cccccc" />
    <path
       style="opacity:1;vector-effect:none;fill:#cfe4a4;fill-opacity:1;stroke:#cae09b;stroke-width:0.09203061;stroke-linecap:butt;stroke-linejoin:miter;stroke-miterlimit:4;stroke-dasharray:none;stroke-dashoffset:0;stroke-opacity:1"
       d="m 123.34057,155.07536 h 6.2673 l 1.99695,3.53718 h 2.42231 v 5.23371 h 5.30309 v 2.45903 h -16.01644 z"
       id="path1069"
       inkscape:connector-curvature="0"
       sodipodi:nodetypes="ccccccccc" />
    <path
       style="opacity:1;vector-effect:none;fill:#cfe4a4;fill-opacity:1;stroke:#cae09b;stroke-width:0.09203061;stroke-linecap:butt;stroke-linejoin:miter;stroke-miterlimit:4;stroke-dasharray:none;stroke-dashoffset:0;stroke-opacity:1"
       d="m 142.44936,163.97628 h 15.18105 v 2.26279 h -15.18105 z"
       id="path1076"
       inkscape:connector-curvature="0" />
    <path
       style="opacity:1;vector-effect:none;fill:#cfe4a4;fill-opacity:1;stroke:#cae09b;stroke-width:0.09203061;stroke-linecap:butt;stroke-linejoin:miter;stroke-miterlimit:4;stroke-dasharray:none;stroke-dashoffset:0;stroke-opacity:1"
       d="m 141.66813,170.87925 9.51561,2.48208 2.18721,-2.1292 v -2.79321 h -11.72271 z"
       id="path1085"
       inkscape:connector-curvature="0" />
    <path
       style="opacity:1;vector-effect:none;fill:#cfe4a4;fill-opacity:1;stroke:#cae09b;stroke-width:0.09203061;stroke-linecap:butt;stroke-linejoin:miter;stroke-miterlimit:4;stroke-dasharray:none;stroke-dashoffset:0;stroke-opacity:1"
       d="m 125.05748,119.12876 h 10.03248 v 1.51843 h 17.67883 v -0.97613 h 10.84592 v -4.06722 h 7.42944 v -3.25376 h -45.98667 z"
       id="path963"
       inkscape:connector-curvature="0" />
    <path
       style="opacity:1;vector-effect:none;fill:#cfe4a4;fill-opacity:1;stroke:#cae09b;stroke-width:0.09203061;stroke-linecap:butt;stroke-linejoin:miter;stroke-miterlimit:4;stroke-dasharray:none;stroke-dashoffset:0;stroke-opacity:1"
       d="m 174.43179,115.55697 h 7.04206 v -1.18873 h 8.39779 v 4.10303 h 10.46848 v 14.14971 l 10.60759,-2.8423 v -17.32773 h -36.51592 z"
       id="path979"
       inkscape:connector-curvature="0"
       sodipodi:nodetypes="ccccccccccc" />
    <path
       style="opacity:1;vector-effect:none;fill:#cfe4a4;fill-opacity:1;stroke:#cae09b;stroke-width:0.09203061;stroke-linecap:butt;stroke-linejoin:miter;stroke-miterlimit:4;stroke-dasharray:none;stroke-dashoffset:0;stroke-opacity:1"
       d="m 158.9992,131.87539 -15.49182,15.49182 v 0.62861 h 15.45346 z"
       id="path986"
       inkscape:connector-curvature="0"
       sodipodi:nodetypes="ccccc" />
    <path
       style="opacity:1;vector-effect:none;fill:#cfe4a4;fill-opacity:1;stroke:#cae09b;stroke-width:0.09203061;stroke-linecap:butt;stroke-linejoin:miter;stroke-miterlimit:4;stroke-dasharray:none;stroke-dashoffset:0;stroke-opacity:1"
       d="m 138.41119,129.09314 h 19.6332 l -6.30793,6.30793 -2.85678,-2.85679 -6.71057,6.71057 v -6.21207 z"
       id="path993"
       inkscape:connector-curvature="0" />
    <path
       style="opacity:1;vector-effect:none;fill:#cfe4a4;fill-opacity:1;stroke:#cae09b;stroke-width:0.09203061;stroke-linecap:butt;stroke-linejoin:miter;stroke-miterlimit:4;stroke-dasharray:none;stroke-dashoffset:0;stroke-opacity:1"
       d="m 137.28626,131.92694 v 15.34696 h 2.9284 l 1.81669,-1.8167 -1.39612,-2.41814 v -9.56659 l -4.01992,-4.01991 h -0.57633 v 1.82362 h 1.24728 z"
       id="path1000"
       inkscape:connector-curvature="0"
       sodipodi:nodetypes="ccccccccccc" />
    <path
       style="opacity:1;vector-effect:none;fill:#cfe4a4;fill-opacity:1;stroke:#cae09b;stroke-width:0.10301118;stroke-linecap:butt;stroke-linejoin:miter;stroke-miterlimit:4;stroke-dasharray:none;stroke-dashoffset:0;stroke-opacity:1"
       d="m 168.80367,161.74317 h 9.38425 v 4.2325 h -9.3538 z"
       id="path1013"
       inkscape:connector-curvature="0" />
    <path
       style="opacity:1;vector-effect:none;fill:#cfe4a4;fill-opacity:1;stroke:#cae09b;stroke-width:0.1006721;stroke-linecap:butt;stroke-linejoin:miter;stroke-miterlimit:4;stroke-dasharray:none;stroke-dashoffset:0;stroke-opacity:1"
       d="m 188.52205,176.63938 h -2.45768 v 10.97159 h 22.42624 v -11.77616 h -4.91533 v 3.80347 h -15.05323 z"
       id="path1137"
       inkscape:connector-curvature="0" />
    <path
       style="opacity:1;vector-effect:none;fill:#cfe4a4;fill-opacity:1;stroke:#cae09b;stroke-width:0.08332685;stroke-linecap:butt;stroke-linejoin:miter;stroke-miterlimit:4;stroke-dasharray:none;stroke-dashoffset:0;stroke-opacity:1"
       d="m 201.18373,168.72915 v 2.8604 l 2.73487,1.03318 h 4.93436 v -3.91867 z"
       id="path1193"
       inkscape:connector-curvature="0" />
    <path
       style="opacity:1;vector-effect:none;fill:#cfe4a4;fill-opacity:1;stroke:#cae09b;stroke-width:0.09203061;stroke-linecap:butt;stroke-linejoin:miter;stroke-miterlimit:4;stroke-dasharray:none;stroke-dashoffset:0;stroke-opacity:1"
       d="m 63.940778,133.98766 v 6.29062 l 2.603018,2.60302 2.692531,0.72147 4.524276,-2.61209 2.735531,-4.73809 v -6.00677 l -4.703792,-17.55479 -4.311859,-1.15536 c 0,0 -25.665364,-2.00554 -44.103414,17.13749 -18.4380501,19.14303 -34.056161,53.74149 -34.056161,53.74149 0,0 -1.202453,2.51085 1.6811163,4.17567 2.8835698,1.66483 5.5856426,-2.11494 5.5856426,-2.11494 l 0.6507547,1.46419 -2.4945585,5.96525 1.8980343,2.76571 h 3.03685361 v -6.94138 H 1.7937066 v -3.03685 l -3.0541675,-5.28997 v -4.14598 l 9.200567,-9.20057 8.4142349,8.41424 c 0,0 5.534195,-5.11289 2.521673,-10.33073 -3.012521,-5.21784 -7.010925,-6.52514 -5.097575,-13.66585 1.913347,-7.14071 2.657245,-6.94138 4.717971,-6.94138 2.060721,0 5.477183,0 5.477183,0 l 0.927745,-3.46238 h 8.345511 l 2.341497,4.05559 h 12.408941 l 1.94539,3.36951 h 7.002485 v -4.50502 h -6.019479 v -6.29062 h 3.470692 v -6.30224 h -4.44961 v -5.44514 h 13.957976 z"
       id="path1218"
       inkscape:connector-curvature="0" />
    <path
       style="opacity:1;vector-effect:none;fill:#d1d4d8;fill-opacity:1;stroke:#000000;stroke-width:0.06146687;stroke-linecap:butt;stroke-linejoin:miter;stroke-miterlimit:4;stroke-dasharray:none;stroke-dashoffset:0;stroke-opacity:0.65829145"
       d="m 80.562137,140.76635 h -4.690859 l -9.40084,5.42758 -8.600273,2.30443 h -8.598484 l -2.045196,-3.54238 H 28.36619 19.797919 v 1.47736 h 26.545367 l 2.013071,3.48674 h 9.592053 l 8.859081,-2.37378 9.259789,-5.34614 h 4.521969 z"
       id="path1258"
       inkscape:connector-curvature="0" />
  </g>
  <g
     inkscape:groupmode="layer"
     id="Roads"
     inkscape:label="Roads"
     transform="translate(0,-87)"
     style="display:inline">
    <path
       style="fill:#d1d4d8;fill-opacity:1;stroke:#000000;stroke-width:0.01446378;stroke-linecap:butt;stroke-linejoin:miter;stroke-miterlimit:4;stroke-dasharray:none;stroke-opacity:0.65829145"
       d="m 99.343635,154.51076 h -1.544399 v -4.76666 h 1.502508 z"
       id="path124-0-0"
       inkscape:connector-curvature="0" />
    <path
       style="fill:#d1d4d8;fill-opacity:1;stroke:#000000;stroke-width:0.02911577;stroke-linecap:butt;stroke-linejoin:miter;stroke-miterlimit:4;stroke-dasharray:none;stroke-opacity:0.65829145"
       d="m 101.69806,154.1844 v 1.55062 H 82.460253 v -1.50857 z"
       id="path124-0"
       inkscape:connector-curvature="0" />
    <path
       style="display:inline;fill:#d1d4d8;fill-opacity:1;stroke:#000000;stroke-width:0.03713796;stroke-linecap:butt;stroke-linejoin:miter;stroke-miterlimit:4;stroke-dasharray:none;stroke-opacity:0.65829145"
       d="m 80.57532,121.49625 v 1.5426 H 54.145664 l -4.534042,1.64889 -0.517672,-1.2707 4.994159,-1.88592 z"
       id="path124-0-2"
       inkscape:connector-curvature="0"
       sodipodi:nodetypes="ccccccc" />
    <path
       style="fill:#d1d4d8;fill-opacity:1;stroke:#000000;stroke-width:0.05896489;stroke-linecap:butt;stroke-linejoin:miter;stroke-miterlimit:4;stroke-dasharray:none;stroke-opacity:0.65829145"
       d="m 80.469277,107.69032 h 2.037249 v 57.50644 l 3.673073,1.22994 0.01449,4.07963 h -9.3979 l 0.02428,-4.07196 3.701686,-1.22404 z"
       id="path124"
       inkscape:connector-curvature="0"
       sodipodi:nodetypes="ccccccccc" />
    <path
       style="fill:#d1d4d8;fill-opacity:1;stroke:#000000;stroke-width:0.06135374;stroke-linecap:butt;stroke-linejoin:miter;stroke-miterlimit:4;stroke-dasharray:none;stroke-opacity:0.65829145"
       d="m 295.39924,108.28226 0.006,1.99129 -59.53642,-2.81794 -17.20924,2.39251 -2.2601,0.006 -8.82792,-2.14124 H 70.011934 V 105.733 l 137.443476,-0.0514 9.22159,2.15193 1.99256,0.0204 17.21315,-2.39242 z"
       id="path124-5"
       inkscape:connector-curvature="0"
       sodipodi:nodetypes="ccccccccccccc" />
    <path
       style="fill:#d1d4d8;fill-opacity:1;stroke:#000000;stroke-width:0.03759507;stroke-linecap:butt;stroke-linejoin:miter;stroke-miterlimit:4;stroke-dasharray:none;stroke-opacity:0.65829145"
       d="m 202.86025,144.05665 v 1.97316 h -22.3834 l 0.015,-10.27681 2.26241,-0.026 -0.0149,8.37321 z"
       id="path124-3"
       inkscape:connector-curvature="0"
       sodipodi:nodetypes="ccccccc" />
    <path
       style="opacity:1;vector-effect:none;fill:#d1d4d8;fill-opacity:1;stroke:#000000;stroke-width:0.06135374;stroke-linecap:butt;stroke-linejoin:miter;stroke-miterlimit:4;stroke-dasharray:none;stroke-dashoffset:0;stroke-opacity:0.65829145"
       d="m 214.40413,135.01646 -5.55255,-0.25797 c 0,0 -5.70372,-0.50929 -5.92143,4.17651 l -0.73362,15.79089 c 0,0 0.42797,5.3944 9.06826,5.79582 0.58719,0.0272 3.33242,0.10911 3.33242,0.10911 l 0.0793,-1.7064 -3.76579,-0.12923 c 0,0 -7.04601,-0.24587 -6.81574,-5.20257 0.23029,-4.95666 0.69464,-14.95123 0.69464,-14.95123 0,0 0.57873,-2.52465 4.42489,-2.34596 3.84614,0.17868 5.49835,0.25545 5.49835,0.25545 l 0.0705,-1.51679 z"
       id="path1063"
       inkscape:connector-curvature="0"
       sodipodi:nodetypes="ccccsccccccccc" />
    <path
       style="opacity:1;vector-effect:none;fill:#d1d4d8;fill-opacity:1;stroke:#000000;stroke-width:0.03358615;stroke-linecap:butt;stroke-linejoin:miter;stroke-miterlimit:4;stroke-dasharray:none;stroke-dashoffset:0;stroke-opacity:0.65829145"
       d="m 192.35636,168.69457 h 8.0531 v 3.17243 l 1.19305,1.19306 h 1.16593 v 5.61275 h -13.23201 v -5.88391 h 1.62689 l 1.19146,-0.68789 z"
       id="path1177"
       inkscape:connector-curvature="0" />
    <path
       style="opacity:1;vector-effect:none;fill:#d1d4d8;fill-opacity:1;stroke:#000000;stroke-width:0.03358615;stroke-linecap:butt;stroke-linejoin:miter;stroke-miterlimit:4;stroke-dasharray:none;stroke-dashoffset:0;stroke-opacity:0.65829145"
       d="m 211.84394,174.03475 v 0.99701 H 184.925 v 13.61285 h 25.80691 v 1.64889 h -27.4558 v -16.87229 h 28.56783 z"
       id="path1130"
       inkscape:connector-curvature="0"
       sodipodi:nodetypes="cccccccccc" />
    <path
       style="fill:#d1d4d8;fill-opacity:1;stroke:#000000;stroke-width:0.06135374;stroke-linecap:butt;stroke-linejoin:miter;stroke-miterlimit:4;stroke-dasharray:none;stroke-opacity:0.65829145"
       d="m 216.62453,109.84812 h 2.03485 l -7.9979,103.44217 h -1.97969 z"
       id="path124-4"
       inkscape:connector-curvature="0"
       sodipodi:nodetypes="ccccc" />
    <path
       style="opacity:1;vector-effect:none;fill:#d1d4d8;fill-opacity:1;stroke:#000000;stroke-width:0.06135374;stroke-linecap:butt;stroke-linejoin:miter;stroke-miterlimit:4;stroke-dasharray:none;stroke-dashoffset:0;stroke-opacity:0.65829145"
       d="m 84.228168,117.43593 h 17.792582 v 35.2784 H 86.452242 v -2.07069 l -2.185731,-2.18573 z"
       id="path1086"
       inkscape:connector-curvature="0" />
  </g>
  <g
     inkscape:groupmode="layer"
     id="Pathways"
     inkscape:label="Pathways">
    <path
       style="fill:#ffffff;fill-opacity:1;stroke:#000000;stroke-width:0.08116085;stroke-linecap:butt;stroke-linejoin:miter;stroke-miterlimit:4;stroke-dasharray:0.32464341, 0.32464341;stroke-dashoffset:0.14;stroke-opacity:0.37373735"
       d="M 122.50249,84.328763 V 24.142555 h -0.44531 v 60.161083 z"
       id="path1276"
       inkscape:connector-curvature="0"
       sodipodi:nodetypes="ccccc" />
    <path
       style="fill:#ffffff;fill-opacity:1;stroke:#000000;stroke-width:0.0802262;stroke-linecap:butt;stroke-linejoin:miter;stroke-miterlimit:4;stroke-dasharray:0.32090484, 0.32090484;stroke-dashoffset:0.14;stroke-opacity:0.37373735"
       d="m 122.97198,80.354919 h 86.6834 v -0.43646 h -86.68383 z"
       id="path1276-2"
       inkscape:connector-curvature="0"
       sodipodi:nodetypes="ccccc" />
    <path
       style="fill:#ffffff;fill-opacity:1;stroke:#000000;stroke-width:0.08063852;stroke-linecap:butt;stroke-linejoin:miter;stroke-miterlimit:4;stroke-dasharray:0.32255407, 0.32255407;stroke-dashoffset:0.14;stroke-opacity:0.37373735"
       d="m 200.2665,60.15534 v 19.293627 h 0.42878 v -19.29373 z"
       id="path1276-2-4"
       inkscape:connector-curvature="0"
       sodipodi:nodetypes="ccccc" />
    <path
       style="fill:#ffffff;fill-opacity:1;stroke:#000000;stroke-width:0.08098362;stroke-linecap:butt;stroke-linejoin:miter;stroke-miterlimit:4;stroke-dasharray:0.32393452, 0.32393452;stroke-dashoffset:0.14;stroke-opacity:0.37373735"
       d="M 200.12872,59.589818 H 172.9895 v 0.419683 h 27.13936 z"
       id="path1276-2-4-4"
       inkscape:connector-curvature="0"
       sodipodi:nodetypes="ccccc" />
    <path
       style="fill:#ffffff;fill-opacity:1;stroke:#000000;stroke-width:0.08134635;stroke-linecap:butt;stroke-linejoin:miter;stroke-miterlimit:4;stroke-dasharray:0.32538539, 0.32538539;stroke-dashoffset:0.14;stroke-opacity:0.37373735"
       d="M 172.86865,59.481659 V 25.219986 h -0.39926 v 34.261835 z"
       id="path1276-2-4-4-3"
       inkscape:connector-curvature="0"
       sodipodi:nodetypes="ccccc" />
    <path
       style="fill:#ffffff;fill-opacity:1;stroke:#000000;stroke-width:0.06371288;stroke-linecap:butt;stroke-linejoin:miter;stroke-miterlimit:4;stroke-dasharray:0.25485151, 0.25485151;stroke-dashoffset:0.14;stroke-opacity:0.37373735"
       d="M 141.34337,61.386636 160.31842,42.411598 160.09729,42.190476 141.12216,61.1656 Z"
       id="path1276-2-4-4-3-0"
       inkscape:connector-curvature="0"
       sodipodi:nodetypes="ccccc" />
    <path
       style="opacity:1;vector-effect:none;fill:#ffffff;fill-opacity:1;stroke:#000000;stroke-width:0.08134635;stroke-linecap:butt;stroke-linejoin:miter;stroke-miterlimit:4;stroke-dasharray:0.32538539, 0.32538539;stroke-dashoffset:0.14;stroke-opacity:0.37373735"
       d="m 137.12082,42.17791 h 0.52195 l 3.96553,3.965537 v 8.72418 l 1.7325,2.907196 -0.26435,0.263462 -1.83818,-3.02887 v -8.743952 z"
       id="path9834"
       inkscape:connector-curvature="0"
       sodipodi:nodetypes="ccccccccc" />
    <path
       style="fill:#ffffff;fill-opacity:1;stroke:#000000;stroke-width:0.08740182;stroke-linecap:butt;stroke-linejoin:miter;stroke-miterlimit:4;stroke-dasharray:0.34960724, 0.34960724;stroke-dashoffset:0.14;stroke-opacity:0.37373735"
       d="M 125.52133,117.44663 151.55145,91.416528 151.2481,91.113219 125.21787,117.14342 Z"
       id="path1276-2-4-4-3-0-9"
       inkscape:connector-curvature="0"
       sodipodi:nodetypes="ccccc" />
    <path
       style="fill:#ffffff;fill-opacity:1;stroke:#000000;stroke-width:0.07603087;stroke-linecap:butt;stroke-linejoin:miter;stroke-miterlimit:4;stroke-dasharray:0.30412356, 0.30412356;stroke-dashoffset:0.14;stroke-opacity:0.37373735"
       d="m 64.677455,86.983279 h 51.628735 l 1.98028,-1.859789 h 22.80747 v -0.43646 h -22.9199 l -1.93564,1.859789 H 64.67707 Z"
       id="path1276-2-40"
       inkscape:connector-curvature="0"
       sodipodi:nodetypes="ccccczccc" />
  </g>
  <g
     inkscape:groupmode="layer"
     id="Buildings"
     inkscape:label="Buidlings">
    <path
       style="opacity:1;fill:#e8e8e8;fill-opacity:1;stroke:#5a300c;stroke-width:0.10434967;stroke-linecap:round;stroke-linejoin:round;stroke-miterlimit:26.10000038;stroke-dasharray:none;stroke-opacity:0.80000006;paint-order:normal"
       d="m 142.62379,61.748253 h 16.43403 v 3.122467 h 2.24599 V 39.8362 h -3.67027 v 1.533844 H 134.5711 v 1.752966 h 0.98605 v 1.752965 h 1.0956 v 15.447993 h -6.95707 V 44.875975 h 1.6434 v -1.807746 h -2.02687 v -1.040823 h -4.32763 v -8.655257 h 8.87438 v 1.42428 h 20.32343 v -1.095602 h 3.77983 v 1.095602 h 1.20516 v -1.259941 h 5.91626 v -3.72505 h 6.68317 v 5.094554 h -2.84856 v 7.559655 h -1.04083 V 60.762209 H 178.943 v 7.34054 h 1.58863 V 65.7472 l 4.57414,-4.574139 h 7.75139 l 4.53306,4.533054 v 6.724258 l -4.48513,4.485123 h -7.99105 l -4.26943,-4.269421 v -0.763503 h -2.35896 v 2.081648 h -10.57257 v 2.62945 h -6.51883 v -3.34159 h -3.45115 v 3.286806 h -15.33843 v -1.533847 h -2.95813 v 1.369508 h -4.49198 v -5.368454 h -2.79379 l -2.03216,-3.519818 h -6.95177 v -9.353512 h 6.51884 v 2.191205 h 3.23202 v 1.369501 h 7.17619 v 3.012908 h 2.46511 z"
       id="path858"
       inkscape:connector-curvature="0" />
    <path
       style="opacity:1;fill:#e8e8e8;fill-opacity:1;stroke:#5a300c;stroke-width:0.10434967;stroke-linecap:round;stroke-linejoin:round;stroke-miterlimit:26.10000038;stroke-dasharray:none;stroke-opacity:0.80000006;paint-order:normal"
       d="m 148.75915,46.848059 -6.62839,6.628394 2.87596,2.875956 6.68318,-6.683174 z"
       id="path860"
       inkscape:connector-curvature="0" />
    <path
       style="opacity:1;fill:#e8e8e8;fill-opacity:1;stroke:#5a300c;stroke-width:0.10434967;stroke-linecap:round;stroke-linejoin:round;stroke-miterlimit:26.10000038;stroke-dasharray:none;stroke-opacity:0.80000006;paint-order:normal"
       d="m 173.78275,29.882108 v 7.049846 h 8.88202 v 1.975504 h 3.09884 v 1.626887 h 4.95813 v 16.152659 h 8.75419 V 32.438645 h -7.74708 v 1.162064 h -2.90515 v -5.113073 h -5.73283 v 1.471944 z"
       id="path862"
       inkscape:connector-curvature="0"
       sodipodi:nodetypes="ccccccccccccccccc" />
    <path
       style="opacity:1;fill:#e8e8e8;fill-opacity:1;stroke:#5a300c;stroke-width:0.10434967;stroke-linecap:round;stroke-linejoin:round;stroke-miterlimit:26.10000038;stroke-dasharray:none;stroke-opacity:0.80000006;paint-order:normal"
       d="m 156.09969,81.469095 h 20.70689 v 12.873329 h 3.45115 v 11.010806 h 15.7219 v 8.8196 H 176.31357 V 101.90208 H 155.77101 V 91.110401 h -2.51988 v -4.218068 h 2.84856 z"
       id="path864"
       inkscape:connector-curvature="0" />
    <path
       style="opacity:1;fill:#e8e8e8;fill-opacity:1;stroke:#5a300c;stroke-width:0.10434967;stroke-linecap:round;stroke-linejoin:round;stroke-miterlimit:26.10000038;stroke-dasharray:none;stroke-opacity:0.80000006;paint-order:normal"
       d="m 102.63429,30.435928 h 15.17409 v 29.197805 h 3.28682 v 3.67027 h -3.17726 v 1.369502 h 3.50593 v 2.465106 h -3.12246 v 0.821702 h 1.15037 v 12.982883 h -16.81749 v -1.698175 h -1.20517 l -2.289419,-3.965403 4.469249,-7.740961 h 1.38088 v -2.15301 h -2.41032 z"
       id="path870"
       inkscape:connector-curvature="0" />
    <path
       style="opacity:1;fill:#e8e8e8;fill-opacity:1;stroke:#5a300c;stroke-width:0.10434967;stroke-linecap:round;stroke-linejoin:round;stroke-miterlimit:26.10000038;stroke-dasharray:none;stroke-opacity:0.80000006;paint-order:normal"
       d="m 182.77761,81.743001 v 3.451145 h 7.75139 v -3.396373 z"
       id="path872"
       inkscape:connector-curvature="0" />
    <path
       style="opacity:1;fill:#e8e8e8;fill-opacity:1;stroke:#5a300c;stroke-width:0.10434967;stroke-linecap:round;stroke-linejoin:round;stroke-miterlimit:26.10000038;stroke-dasharray:none;stroke-opacity:0.80000006;paint-order:normal"
       d="m 109.66147,95.114356 v 11.284714 h -5.75191 v 6.08059 l -0.65736,0.65736 h -2.35554 -11.887295 l -0.657356,-0.65736 v -2.24599 h -12.81855 v 2.19121 l -0.739529,0.73953 H 44.41835 V 92.211012 h 30.293408 v 1.862526 h 2.903348 v -4.76587 h 7.66922 v 3.670268 h 2.300759 v -3.012911 h 16.434045 v 3.944173 1.259942 z"
       id="path874"
       inkscape:connector-curvature="0" />
    <path
       style="opacity:1;fill:#e8e8e8;fill-opacity:1;stroke:#5a300c;stroke-width:0.10434967;stroke-linecap:round;stroke-linejoin:round;stroke-miterlimit:26.10000038;stroke-dasharray:none;stroke-opacity:0.80000006;paint-order:normal"
       d="M 63.747099,66.099705 H 46.471113 v 8.289369 h -0.92965 v -1.162061 h -6.120192 v 5.113076 h -1.394475 v -1.316997 h -3.796069 v 3.253773 h -1.239533 v 2.324122 h 1.317004 v 3.331248 h 13.867273 l 4.919395,-4.919403 4.105952,4.105951 4.841923,-4.841918 -5.268013,-5.268012 3.211884,1.854375 1.83905,-1.839047 h 2.928559 l 0.89858,-0.898578 h 4.9892 v -3.145238 h 2.943891 v -6.352604 h -3.331244 v -2.324122 h -6.507549 z"
       id="path876"
       inkscape:connector-curvature="0" />
    <path
       style="opacity:1;fill:#e8e8e8;fill-opacity:1;stroke:#5a300c;stroke-width:0.10434967;stroke-linecap:round;stroke-linejoin:round;stroke-miterlimit:26.10000038;stroke-dasharray:none;stroke-opacity:0.80000006;paint-order:normal"
       d="m 51.086194,39.069279 h 9.148277 l 1.232554,1.232554 v 13.284179 l -1.273636,1.273639 h -8.230714 v -4.122204 h 4.10851 v -8.38136 h -4.984991 z"
       id="path878"
       inkscape:connector-curvature="0" />
    <path
       style="opacity:1;fill:#e8e8e8;fill-opacity:1;stroke:#5a300c;stroke-width:0.10434967;stroke-linecap:round;stroke-linejoin:round;stroke-miterlimit:26.10000038;stroke-dasharray:none;stroke-opacity:0.80000006;paint-order:normal"
       d="m 25.558655,60.159627 h 8.819599 v 4.930211 l 1.741692,1.005567 h 4.503241 v -4.456714 h 4.546752 v 3.396368 h -2.355545 v 5.094555 h -6.792737 v 3.396361 h -8.76482 v -7.450093 h -1.588623 z"
       id="path891"
       inkscape:connector-curvature="0" />
    <path
       style="display:inline;opacity:1;vector-effect:none;fill:#e8e8e8;fill-opacity:1;stroke:#5a300c;stroke-width:0.10434967;stroke-linecap:round;stroke-linejoin:round;stroke-miterlimit:26.10000038;stroke-dasharray:none;stroke-dashoffset:0;stroke-opacity:0.80000006;paint-order:normal"
       d="m 250.90497,125.90234 4.99075,-18.62575 7.5316,-4.34838 -0.93592,-1.62107 1.90729,-1.10118 1.06244,1.84021 3.9676,-2.401137 -0.98483,-1.623959 1.95484,-1.212682 1.04275,1.662522 3.81187,-2.294835 -0.94251,-1.581651 1.81909,-1.050245 0.93902,1.626441 4.20383,-2.427069 -1.12842,-1.95447 1.79767,-1.037885 1.54246,2.671619 1.56155,-0.901558 0.50355,0.872189 3.61619,-2.087817 -3.01252,-5.217877 -2.4079,1.390204 -1.11676,-1.93426 2.32301,-1.341195 -1.23321,-2.136003 -2.40439,1.388164 -1.16447,-2.016917 2.23135,-1.288278 -1.09904,-1.903604 -0.90686,0.52358 -0.84801,-1.468791 -4.18825,2.418083 0.93614,1.62142 -1.59639,0.921674 -0.99397,-1.721584 -4.3781,2.527709 1.28576,2.227007 -1.39095,0.803064 -1.10877,-1.920452 -4.46077,2.575431 1.06512,1.844844 -1.66349,0.960423 -1.13852,-1.971977 -4.35356,2.513529 1.09866,1.902943 -1.47119,0.849407 -1.58881,-2.751887 -4.78181,-1.281274 -3.83296,2.212955 -0.55449,-0.960411 2.55959,-1.477777 -2.85658,-4.947751 -1.90953,1.102465 -1.08182,-1.873749 2.22896,-1.286886 -2.48758,-4.308609 -2.20246,1.271581 -0.97599,-1.690453 2.14629,-1.239152 -2.39732,-4.152293 -2.32765,1.343873 -1.00953,-1.748553 3.61925,-2.089574 -2.67709,-4.636847 -4.98964,2.880769 1.27539,2.209032 -2.01451,1.163081 -1.44182,-2.497315 -2.2121,1.277143 1.3107,2.270197 -1.93186,1.115358 -1.16308,-2.014516 -3.44364,1.988197 2.95583,5.11965 1.73281,-1.000435 0.94104,1.62993 -2.06361,1.191441 2.49795,4.326593 2.36119,-1.363236 1.0341,1.791092 -2.17085,1.253333 2.33922,4.051654 2.08625,-1.204497 0.99015,1.71501 -2.10375,1.214595 2.46961,4.277479 2.01916,-1.16576 0.82623,1.431075 -3.22811,1.863743 2.98559,5.171172 3.82275,-2.207062 1.02788,1.780332 2.99681,-1.730198 0.77611,1.344248 -5.00058,2.88706 -4.8487,18.09561 z"
       id="path895"
       inkscape:connector-curvature="0"
       sodipodi:nodetypes="cccccccccccccccccccccccccccccccccccccccccccccccccccccccccccccccccccccccccccccccccccccccccccccccccc" />
    <path
       style="display:inline;opacity:1;vector-effect:none;fill:#e8e8e8;fill-opacity:1;stroke:#5a300c;stroke-width:0.10434967;stroke-linecap:round;stroke-linejoin:round;stroke-miterlimit:26.10000038;stroke-dasharray:none;stroke-dashoffset:0;stroke-opacity:0.80000006;paint-order:normal"
       d="m 256.40633,117.41146 6.48298,1.73711 -1.49386,5.57518 0.87077,1.50822 -0.37506,1.39977 -1.92772,1.11297 -1.05977,3.95511 -4.02396,2.32323 -2.17805,-3.77246 z"
       id="path897"
       inkscape:connector-curvature="0" />
    <use
       id="use9788"
       style="fill:#bdc0c7;fill-opacity:1;stroke:#000000"
       xlink:href="#Parking_Inv"
       x="0"
       y="0"
       width="100%"
       height="100%"
       transform="matrix(0.14291722,0,0,0.14291722,92.123125,45.968203)" />
    <use
       id="use9788-5"
       style="fill:#bdc0c7;fill-opacity:1;stroke:#000000"
       xlink:href="#Parking_Inv"
       x="0"
       y="0"
       width="100%"
       height="100%"
       transform="matrix(0.14291722,0,0,0.14291722,195.13784,88.437914)" />
    <rect
       style="opacity:1;vector-effect:none;fill:#ffffff;fill-opacity:1;stroke:#000000;stroke-width:0.07015999;stroke-linecap:butt;stroke-linejoin:miter;stroke-miterlimit:4;stroke-dasharray:0.28063995, 0.28063995;stroke-dashoffset:0.52913386;stroke-opacity:0.37373735;paint-order:normal"
       id="rect10953"
       width="5.622396"
       height="1.984375"
       x="132.22552"
       y="81.412498" />
  </g>
  <g
     inkscape:groupmode="layer"
     id="Text"
     inkscape:label="Text">
    <text
       xml:space="preserve"
       style="font-style:normal;font-variant:normal;font-weight:bold;font-stretch:normal;font-size:1.43426263px;line-height:1.25;font-family:'Malgun Gothic';-inkscape-font-specification:'Malgun Gothic Bold';letter-spacing:0px;word-spacing:0px;display:inline;fill:#000000;fill-opacity:1;stroke:#ffffff;stroke-width:0.15338436;stroke-linejoin:miter;stroke-miterlimit:4;stroke-dasharray:none;stroke-opacity:0.80000006;paint-order:stroke markers fill"
       x="128.62527"
       y="62.468525"
       id="text1094"><tspan
         sodipodi:role="line"
         x="128.8774"
         y="62.468525"
         style="font-style:normal;font-variant:normal;font-weight:bold;font-stretch:normal;font-family:'Malgun Gothic';-inkscape-font-specification:'Malgun Gothic Bold';text-align:center;text-anchor:middle;stroke:#ffffff;stroke-width:0.15338436;stroke-linejoin:miter;stroke-miterlimit:4;stroke-dasharray:none;stroke-opacity:0.80000006;paint-order:stroke markers fill"
         id="tspan1096">Cornwallis </tspan><tspan
         sodipodi:role="line"
         x="128.62527"
         y="64.261353"
         style="font-style:normal;font-variant:normal;font-weight:bold;font-stretch:normal;font-family:'Malgun Gothic';-inkscape-font-specification:'Malgun Gothic Bold';text-align:center;text-anchor:middle;stroke:#ffffff;stroke-width:0.15338436;stroke-linejoin:miter;stroke-miterlimit:4;stroke-dasharray:none;stroke-opacity:0.80000006;paint-order:stroke markers fill"
         id="tspan1142">South</tspan><tspan
         sodipodi:role="line"
         x="128.62527"
         y="66.054184"
         style="font-style:normal;font-variant:normal;font-weight:bold;font-stretch:normal;font-family:'Malgun Gothic';-inkscape-font-specification:'Malgun Gothic Bold';text-align:center;text-anchor:middle;stroke:#ffffff;stroke-width:0.15338436;stroke-linejoin:miter;stroke-miterlimit:4;stroke-dasharray:none;stroke-opacity:0.80000006;paint-order:stroke markers fill"
         id="tspan1144">West</tspan></text>
    <text
       xml:space="preserve"
       style="font-style:normal;font-variant:normal;font-weight:bold;font-stretch:normal;font-size:1.80175352px;line-height:1.25;font-family:'Malgun Gothic';-inkscape-font-specification:'Malgun Gothic Bold';letter-spacing:0px;word-spacing:0px;display:inline;fill:#000000;fill-opacity:1;stroke:#ffffff;stroke-width:0.15338436;stroke-linejoin:miter;stroke-miterlimit:4;stroke-dasharray:none;stroke-opacity:0.80000006;paint-order:stroke markers fill"
       x="146.71207"
       y="68.941452"
       id="text1094-7"><tspan
         sodipodi:role="line"
         x="146.71207"
         y="68.941452"
         style="font-style:normal;font-variant:normal;font-weight:bold;font-stretch:normal;font-family:'Malgun Gothic';-inkscape-font-specification:'Malgun Gothic Bold';text-align:center;text-anchor:middle;stroke:#ffffff;stroke-width:0.15338436;stroke-linejoin:miter;stroke-miterlimit:4;stroke-dasharray:none;stroke-opacity:0.80000006;paint-order:stroke markers fill"
         id="tspan1096-4">Cornwallis</tspan><tspan
         sodipodi:role="line"
         x="146.71207"
         y="71.193642"
         style="font-style:normal;font-variant:normal;font-weight:bold;font-stretch:normal;font-family:'Malgun Gothic';-inkscape-font-specification:'Malgun Gothic Bold';text-align:center;text-anchor:middle;stroke:#ffffff;stroke-width:0.15338436;stroke-linejoin:miter;stroke-miterlimit:4;stroke-dasharray:none;stroke-opacity:0.80000006;paint-order:stroke markers fill"
         id="tspan1140">South</tspan></text>
    <text
       xml:space="preserve"
       style="font-style:normal;font-variant:normal;font-weight:bold;font-stretch:normal;font-size:1.66768026px;line-height:1.25;font-family:'Malgun Gothic';-inkscape-font-specification:'Malgun Gothic Bold';letter-spacing:0px;word-spacing:0px;display:inline;fill:#000000;fill-opacity:1;stroke:#ffffff;stroke-width:0.14197065;stroke-linejoin:miter;stroke-miterlimit:4;stroke-dasharray:none;stroke-opacity:0.80000006;paint-order:stroke markers fill"
       x="133.1391"
       y="51.41328"
       id="text1094-7-1"><tspan
         sodipodi:role="line"
         x="133.1391"
         y="51.41328"
         style="font-style:normal;font-variant:normal;font-weight:bold;font-stretch:normal;font-family:'Malgun Gothic';-inkscape-font-specification:'Malgun Gothic Bold';text-align:center;text-anchor:middle;stroke:#ffffff;stroke-width:0.14197065;stroke-linejoin:miter;stroke-miterlimit:4;stroke-dasharray:none;stroke-opacity:0.80000006;paint-order:stroke markers fill"
         id="tspan1096-4-0">Cornwallis</tspan><tspan
         sodipodi:role="line"
         x="133.1391"
         y="53.497879"
         style="font-style:normal;font-variant:normal;font-weight:bold;font-stretch:normal;font-family:'Malgun Gothic';-inkscape-font-specification:'Malgun Gothic Bold';text-align:center;text-anchor:middle;stroke:#ffffff;stroke-width:0.14197065;stroke-linejoin:miter;stroke-miterlimit:4;stroke-dasharray:none;stroke-opacity:0.80000006;paint-order:stroke markers fill"
         id="tspan1140-2">West</tspan></text>
    <text
       xml:space="preserve"
       style="font-style:normal;font-variant:normal;font-weight:bold;font-stretch:normal;font-size:1.3981787px;line-height:1.25;font-family:'Malgun Gothic';-inkscape-font-specification:'Malgun Gothic Bold';letter-spacing:0px;word-spacing:0px;display:inline;fill:#000000;fill-opacity:1;stroke:#ffffff;stroke-width:0.11902781;stroke-linejoin:miter;stroke-miterlimit:4;stroke-dasharray:none;stroke-opacity:0.80000006;paint-order:stroke markers fill"
       x="146.67822"
       y="52.222515"
       id="text1094-7-1-6"><tspan
         sodipodi:role="line"
         x="146.67822"
         y="52.222515"
         style="font-style:normal;font-variant:normal;font-weight:bold;font-stretch:normal;font-family:'Malgun Gothic';-inkscape-font-specification:'Malgun Gothic Bold';text-align:center;text-anchor:middle;stroke:#ffffff;stroke-width:0.11902781;stroke-linejoin:miter;stroke-miterlimit:4;stroke-dasharray:none;stroke-opacity:0.80000006;paint-order:stroke markers fill"
         id="tspan1140-2-0">The Shed</tspan></text>
  </g>
</svg>
