<?xml version="1.0" encoding="UTF-8" standalone="no"?>
<!-- Created with Inkscape (http://www.inkscape.org/) -->

<svg
   xmlns:dc="http://purl.org/dc/elements/1.1/"
   xmlns:cc="http://creativecommons.org/ns#"
   xmlns:rdf="http://www.w3.org/1999/02/22-rdf-syntax-ns#"
   xmlns:svg="http://www.w3.org/2000/svg"
   xmlns="http://www.w3.org/2000/svg"
   xmlns:sodipodi="http://sodipodi.sourceforge.net/DTD/sodipodi-0.dtd"
   xmlns:inkscape="http://www.inkscape.org/namespaces/inkscape"
   width="30cm"
   height="20cm"
   viewBox="0 0 1350 1000"
   version="1.1"
   id="svg11188"
   inkscape:version="0.92.4 (5da689c313, 2019-01-14)"
   sodipodi:docname="octgroundDUP.svg">
  <defs
     id="defs11182" />
  <sodipodi:namedview
     id="base"
     pagecolor="#ffffff"
     bordercolor="#666666"
     borderopacity="1.0"
     inkscape:pageopacity="0.0"
     inkscape:pageshadow="2"
     inkscape:zoom="0.25"
     inkscape:cx="1730.2395"
     inkscape:cy="1587.0971"
     inkscape:document-units="cm"
     inkscape:current-layer="svg11188"
     showgrid="false"
     units="cm"
     inkscape:window-width="1920"
     inkscape:window-height="1017"
     inkscape:window-x="-8"
     inkscape:window-y="-8"
     inkscape:window-maximized="1" />
  <metadata
     id="metadata11185">
    <rdf:RDF>
      <cc:Work
         rdf:about="">
        <dc:format>image/svg+xml</dc:format>
        <dc:type
           rdf:resource="http://purl.org/dc/dcmitype/StillImage" />
        <dc:title></dc:title>
      </cc:Work>
    </rdf:RDF>
  </metadata>
  <g
     inkscape:label="Layer 1"
     inkscape:groupmode="layer"
     id="layer1"
     transform="translate(0,703.00003)"
     style="display:inline">
    <path
       style="fill:#008080;stroke:#000000;stroke-width:0.26458332px;stroke-linecap:butt;stroke-linejoin:miter;stroke-opacity:1"
       d="m 466.92135,-5.8351113 56.08832,-52.5004167 -26.59223,-24.209567 -49.4238,0.005 0.034,-68.489105 41.94641,0.007 -0.57905,7.56896 31.55455,-0.27834 92.95931,83.846337 35.3227,-0.04677 -0.0468,150.379528 -74.71548,-0.01843 z"
       id="SE23"
       inkscape:connector-curvature="0"
       inkscape:label="#path18052"
       sodipodi:nodetypes="ccccccccccccc" />
    <path
       style="fill:#008080;stroke:#000000;stroke-width:0.26458332px;stroke-linecap:butt;stroke-linejoin:miter;stroke-opacity:1"
       d="m 673.76465,-689.91785 -0.004,208.27987 184.36009,0.035 -0.17942,83.03296 7.03909,-0.002 5.57233,4.8262 245.32256,-221.42408 -82.7539,-74.74547 z"
       id="SE03"
       inkscape:connector-curvature="0"
       inkscape:label="#path18956"
       sodipodi:nodetypes="ccccccccc" />
    <path
       style="fill:#008080;stroke:#000000;stroke-width:0.26458332px;stroke-linecap:butt;stroke-linejoin:miter;stroke-opacity:1"
       d="m 780.84263,-476.95075 -0.0292,76.99727 15.90258,-0.0264 v -14.76253 l 39.92196,-0.003 -0.0248,14.74257 16.80814,0.0468 -0.008,-76.98273 z"
       id="LIFT"
       inkscape:connector-curvature="0"
       inkscape:label="#path18958"
       sodipodi:nodetypes="ccccccccc" />
    <path
       style="fill:#008080;stroke:#000000;stroke-width:0.26458332px;stroke-linecap:butt;stroke-linejoin:miter;stroke-opacity:1"
       d="m 872.40218,-391.77037 135.70622,122.10803 97.5423,-87.98223 -68.7603,-62.01785 147.877,-133.40379 -66.8908,-60.25686 z"
       id="SE05"
       inkscape:connector-curvature="0"
       sodipodi:nodetypes="ccccccc"
       inkscape:label="#path16981" />
    <path
       style="fill:#008080;stroke:#000000;stroke-width:0.26458332px;stroke-linecap:butt;stroke-linejoin:miter;stroke-opacity:1"
       d="m 1109.9334,-357.61147 -68.7209,-61.97087 145.5553,-131.62175 151.8913,136.97044 -0.01,120.32373 -208.571,0.0414 0.016,43.42775 -41.9804,-5e-5 0.095,-87.58827 z"
       id="SE07"
       inkscape:connector-curvature="0"
       sodipodi:nodetypes="cccccccccc" />
    <path
       style="fill:#008080;stroke:#000000;stroke-width:0.26458332px;stroke-linecap:butt;stroke-linejoin:miter;stroke-opacity:1"
       d="m 1085.277,-335.39752 -0.012,68.15196 -75.5251,-0.004 z"
       id="SE08"
       inkscape:connector-curvature="0"
       inkscape:label="#path17025"
       sodipodi:nodetypes="cccc" />
    <path
       style="fill:#008080;stroke:#000000;stroke-width:0.26458332px;stroke-linecap:butt;stroke-linejoin:miter;stroke-opacity:1"
       d="m 946.59483,-319.06118 -0.0176,87.18893 138.69597,0.005 0.016,-31.29718 -76.7403,-0.005 z"
       id="SE06"
       inkscape:connector-curvature="0"
       sodipodi:nodetypes="cccccc"
       inkscape:label="#path17051" />
    <path
       style="fill:#008080;stroke:#000000;stroke-width:0.26458332px;stroke-linecap:butt;stroke-linejoin:miter;stroke-opacity:1"
       d="m 1338.648,-291.23993 0.01,180.20345 -205.4263,-0.0115 9e-4,-180.1919 z"
       id="SE09"
       inkscape:connector-curvature="0"
       inkscape:label="#path17061"
       sodipodi:nodetypes="ccccc" />
    <path
       style="fill:#008080;stroke:#000000;stroke-width:0.26458332px;stroke-linecap:butt;stroke-linejoin:miter;stroke-opacity:1"
       d="m 945.05975,-116.58447 -0.0389,-53.65274 67.65865,0.0267 0.024,20.18694 -30.58887,-0.0175 z"
       id="SE12"
       inkscape:connector-curvature="0"
       sodipodi:nodetypes="cccccc"
       inkscape:label="#path17071" />
    <path
       style="fill:#008080;stroke:#000000;stroke-width:0.26458332px;stroke-linecap:butt;stroke-linejoin:miter;stroke-opacity:1"
       d="m 1130.079,-111.04388 v -40.78274 h -44.8058 l 0.01,-18.37152 -69.6877,-0.0207 0.039,22.84812 -19.82983,-0.004 40.52823,36.34385 z"
       id="SE11"
       inkscape:connector-curvature="0"
       inkscape:label="#path17081"
       sodipodi:nodetypes="ccccccccc" />
    <path
       style="fill:#008080;stroke:#000000;stroke-width:0.26458332px;stroke-linecap:butt;stroke-linejoin:miter;stroke-opacity:1"
       d="m 991.74187,-147.4037 -8.49767,0.0117 -42.30712,38.13679 20.27415,18.350122 -39.58854,35.670371 -20.39834,-18.197697 -45.15369,40.763997 0.0165,7.403042 261.87484,236.452115 220.6907,-199.068837 0.047,-120.285763 -303.6991,-0.0165 z"
       id="SE14"
       inkscape:connector-curvature="0"
       sodipodi:nodetypes="ccccccccccccc"
       inkscape:label="#path17091" />
    <path
       style="fill:#008080;stroke:#000000;stroke-width:0.26458332px;stroke-linecap:butt;stroke-linejoin:miter;stroke-opacity:1"
       d="m 959.62645,71.738299 -0.0179,18.685498 H 915.47244 V 32.149674 Z"
       id="SE13"
       inkscape:connector-curvature="0"
       sodipodi:nodetypes="ccccc"
       inkscape:label="#path17101" />
    <path
       style="fill:#008080;stroke:#000000;stroke-width:0.26458332px;stroke-linecap:butt;stroke-linejoin:miter;stroke-opacity:1"
       d="m 912.55063,90.423797 -56.47999,0.005 V 13.055476 l 38.22308,-2.6e-5 18.25304,16.446447 z"
       id="SE15"
       inkscape:connector-curvature="0"
       inkscape:label="#path17111"
       sodipodi:nodetypes="cccccc" />
    <path
       style="fill:#008080;stroke:#000000;stroke-width:0.26458332px;stroke-linecap:butt;stroke-linejoin:miter;stroke-opacity:1"
       d="m 1115.9052,213.08961 c -26.4428,-24.19714 -53.1604,-48.09442 -79.7763,-72.10124 l -73.65727,0.0269 -0.0468,146.82744 61.96207,-0.0115 c 6.4765,-2.32871 12.6345,-4.65028 14.6271,-5.44752 25.6772,-23.04574 51.1826,-46.28339 76.8912,-69.29408 z"
       id="SE16"
       inkscape:connector-curvature="0"
       inkscape:label="#path17121"
       sodipodi:nodetypes="ccccccc" />
    <path
       style="fill:#008080;stroke:#000000;stroke-width:0.26458332px;stroke-linecap:butt;stroke-linejoin:miter;stroke-opacity:1"
       d="m 861.04885,140.9801 -0.0389,136.74837 0.0532,10.16439 c 33.03559,-0.0516 65.71859,-0.0408 98.52984,-0.0538 l -0.008,-146.87093 z"
       id="SE17"
       inkscape:connector-curvature="0"
       inkscape:label="#path17131"
       sodipodi:nodetypes="cccccc" />
    <path
       style="fill:#008080;stroke:#000000;stroke-width:0.26458332px;stroke-linecap:butt;stroke-linejoin:miter;stroke-opacity:1"
       d="m 856.58914,142.59662 -2.7e-4,145.28878 -190.01393,-0.0399 -0.0105,-145.26041 z"
       id="SE18"
       inkscape:connector-curvature="0"
       inkscape:label="#path17141"
       sodipodi:nodetypes="ccccc" />
    <path
       style="fill:#008080;stroke:#000000;stroke-width:0.26458332px;stroke-linecap:butt;stroke-linejoin:miter;stroke-opacity:1"
       d="m 661.87486,140.93049 -0.002,146.97229 -172.02999,0.002 -82.98748,-74.90143 100.11872,-90.22932 20.14425,18.20594 z"
       id="SE19"
       inkscape:connector-curvature="0"
       inkscape:label="#path17151"
       sodipodi:nodetypes="ccccccc" />
    <path
       style="fill:#008080;stroke:#000000;stroke-width:0.26458332px;stroke-linecap:butt;stroke-linejoin:miter;stroke-opacity:1"
       d="M 504.80494,120.84885 404.90665,211.19641 216.05562,40.84224 327.73339,-59.676551 416.32455,20.208077 404.94584,30.680449 Z"
       id="SE20"
       inkscape:connector-curvature="0"
       inkscape:label="#path17161"
       sodipodi:nodetypes="ccccccc" />
    <path
       style="fill:#008080;stroke:#000000;stroke-width:0.26458332px;stroke-linecap:butt;stroke-linejoin:miter;stroke-opacity:1"
       d="M 325.38121,-61.440837 214.1273,38.905259 184.15049,12.137745 l 0.11497,-44.371578 -6.0769,0.0012 0.0149,-118.879377 147.17879,0.1062 z"
       id="SE20A"
       inkscape:connector-curvature="0"
       inkscape:label="#path17171"
       sodipodi:nodetypes="cccccccc" />
    <path
       style="fill:#008080;stroke:#000000;stroke-width:0.26458332px;stroke-linecap:butt;stroke-linejoin:miter;stroke-opacity:1"
       d="m 664.79702,-689.97543 0.002,280.07489 -170.1167,153.30735 -310.46504,0.007 -0.007,-157.70895 305.70431,-275.69105 z"
       id="SE01"
       inkscape:connector-curvature="0"
       inkscape:label="#path17986"
       sodipodi:nodetypes="ccccccc" />
    <path
       style="fill:#008080;stroke:#000000;stroke-width:0.26458332px;stroke-linecap:butt;stroke-linejoin:miter;stroke-opacity:1"
       d="m 506.18302,-263.07087 v 11.99064 H 523.344 l 165.51515,-149.29394 8.61981,-0.0165 v -12.10582 l -27.74302,0.0167 -0.0117,12.94395 -12.40345,-0.0702 z"
       id="SE02"
       inkscape:connector-curvature="0"
       inkscape:label="#path17996"
       sodipodi:nodetypes="cccccccccc" />
    <path
       style="fill:#008080;stroke:#000000;stroke-width:0.26458332px;stroke-linecap:butt;stroke-linejoin:miter;stroke-opacity:1"
       d="M 464.89765,-7.3979087 391.36879,-74.030198 h 110.20932 l 18.26979,16.4213 z"
       id="SE21"
       inkscape:connector-curvature="0"
       inkscape:label="#path18016"
       sodipodi:nodetypes="ccccc" />
    <path
       style="fill:#008080;stroke:#000000;stroke-width:0.26458332px;stroke-linecap:butt;stroke-linejoin:miter;stroke-opacity:1"
       d="m 381.06834,-82.505173 62.89547,-0.01654 -0.0234,-68.519187 -62.82631,0.0184 z"
       id="SE22"
       inkscape:connector-curvature="0"
       inkscape:label="#path18026"
       sodipodi:nodetypes="ccccc" />
    <path
       style="fill:#008080;stroke:#000000;stroke-width:0.26458332px;stroke-linecap:butt;stroke-linejoin:miter;stroke-opacity:1"
       d="m 651.11714,90.412246 202.07856,0.01654 -8e-5,-157.593717 -136.65373,0.0083 0.014,26.665362 -2.94299,0.02167 0.0127,-26.695304 h -62.50018 l 0.004,64.6498654 65.40378,-0.023243 v 2.67805949 l -46.7977,-0.0115505 -0.012,12.93969361 -18.59412,-0.05419 z"
       id="SE24"
       inkscape:connector-curvature="0"
       inkscape:label="#path18064"
       sodipodi:nodetypes="ccccccccccccccc" />
    <path
       style="fill:#decd87;stroke:#000000;stroke-width:0.26458332px;stroke-linecap:butt;stroke-linejoin:miter;stroke-opacity:1"
       d="m 298.95617,-229.97761 0.006,57.94519 -0.002,18.35661 29.3661,-0.003 -0.0245,32.6537 h 4.13643 41.89341 l 4.11189,-0.0422 0.0246,-32.55967 26.15226,-0.0448 35.15674,-0.021 9.78698,0.0165 36.74073,-0.0165 38.34697,0.004 73.04096,65.882436 2.85782,-2.404613 44.8118,-39.188953 11.23998,-10.13184 v -123.21416 l -8.87977,-8.11224 -0.82991,0.67505 -2.20265,-1.89366 -43.94388,-39.62216 -3.0152,-2.82534 -73.29798,66.11597 h -50.76078 l -0.006,-0.94092 -3.67428,0.0117 H 407.7118 l -4.80232,0.0165 0.008,0.91423 h -24.44787 l -0.0165,-1.82273 -50.14935,-3.5e-4 0.008,1.81859 -29.35636,0.004 z"
       id="COR2"
       inkscape:connector-curvature="0"
       sodipodi:nodetypes="ccccccccccccccccccccccccccccccccccccc"
       inkscape:label="#path13037" />
    <ellipse
       style="fill:none;stroke-width:0.22604544"
       id="SE01D"
       cx="438.67914"
       cy="-236.9292"
       rx="8.598958"
       ry="7.5406246"
       inkscape:label="#path13043" />
    <ellipse
       style="fill:none;stroke-width:0.22604544"
       id="SE22D"
       cx="422.27499"
       cy="-168.6667"
       rx="8.598958"
       ry="7.5406246"
       inkscape:label="#path13043" />
    <ellipse
       style="fill:none;stroke-width:0.22604544"
       id="SE23D"
       cx="466.19583"
       cy="-168.66669"
       rx="8.598958"
       ry="7.5406246"
       inkscape:label="#path13043" />
    <ellipse
       style="fill:none;stroke-width:0.22604544"
       id="P8"
       cx="352.95416"
       cy="-144.32503"
       rx="8.598958"
       ry="7.5406246"
       inkscape:label="#path13043" />
    <ellipse
       style="fill:none;stroke-width:0.22604544"
       id="P9"
       cx="411.16248"
       cy="-194.0667"
       rx="8.598958"
       ry="7.5406246"
       inkscape:label="#path13043" />
    <ellipse
       style="fill:none;stroke-width:0.22604544"
       id="P10"
       cx="485.24582"
       cy="-195.12505"
       rx="8.598958"
       ry="7.5406246"
       inkscape:label="#path13043" />
    <ellipse
       style="fill:none;stroke-width:0.22604544"
       id="P11"
       cx="564.62079"
       cy="-197.2417"
       rx="8.598958"
       ry="7.5406246"
       inkscape:label="#path13043" />
    <ellipse
       style="fill:none;stroke-width:0.22604544"
       id="STAIRSD"
       cx="626.00409"
       cy="-194.06671"
       rx="8.598958"
       ry="7.5406246"
       inkscape:label="#path13043" />
    <ellipse
       style="fill:none;stroke-width:0.22604544"
       id="P13"
       cx="597.42914"
       cy="-142.20836"
       rx="8.598958"
       ry="7.5406246"
       inkscape:label="#path13043" />
    <ellipse
       style="fill:none;stroke-width:0.22604544"
       id="P14"
       cx="599.54578"
       cy="-255.97919"
       rx="8.598958"
       ry="7.5406246"
       inkscape:label="#path13043" />
    <ellipse
       style="fill:none;stroke-width:0.22604544"
       id="P7"
       cx="344.48752"
       cy="-193.53754"
       rx="8.598958"
       ry="7.5406246"
       inkscape:label="#path13043" />
    <path
       style="fill:#decd87;stroke:#000000;stroke-width:0.26458332px;stroke-linecap:butt;stroke-linejoin:miter;stroke-opacity:1"
       d="m 647.9431,-273.02551 8.6596,7.81006 2.69113,-2.42842 204.34715,0.007 6.81432,6.13207 0.0106,120.88124 -6.85246,6.19184 -204.30985,-0.0102 -2.71794,-2.43157 -8.46711,7.68325 -46.75051,41.325746 -1.90641,1.672253 17.93417,16.161424 h 36.20295 l 36.91229,0.02238 165.61422,-0.0224 -0.004,5.665309 31.001,-0.01119 14.12527,-12.918005 20.48859,18.292922 2.66072,-2.639175 29.74046,-26.629176 2.98608,-2.64147 -20.38134,-18.382758 5.37891,-4.66622 -0.004,-58.91459 7.49419,-0.0102 2.069,-0.0105 27.05128,0.19225 c 36.52419,0.15107 73.08949,0.40465 109.39879,0.0184 l 0.1,18.21302 4.1514,-0.0298 31.1698,0.0186 6.5302,-0.003 v -53.5331 l 0.01,-33.63865 v -5.92943 l -6.7947,-0.041 -32.5665,0.0373 -2.5011,-0.0224 -0.01,18.3951 -79.4335,-0.0136 -54.03574,0.0317 -12.6376,-3e-5 v -96.11146 l -41.32176,-37.07141 -25.90221,-23.48099 -11.03736,-10.06604 -30.38739,0.0198 0.009,-18.40037 -33.83453,0.0149 0.0258,18.38018 -23.33523,0.005 0.009,-1.83092 -16.32907,0.0123 -0.0316,-2.67731 h 16.35947 l -0.003,-78.34611 -18.99868,-0.0164 -36.73498,0.0117 -51.12309,0.003 0.0378,63.61285 30.90314,-0.0284 0.004,14.79575 18.59436,-0.0165 0.008,2.62851 -28.81785,0.0372 -90.38726,81.32439 1.9262,1.77994 z"
       id="COR3"
       inkscape:connector-curvature="0"
       inkscape:label="#path13039"
       sodipodi:nodetypes="cccccccccccccccccccccccccccccccccccccccccccccccccccccccccccccccccccccc" />
    <ellipse
       style="fill:none;stroke-width:0.22604544"
       id="P16"
       cx="698.5"
       cy="-337.47089"
       rx="8.598958"
       ry="7.5406246"
       inkscape:label="#path13043" />
    <ellipse
       style="fill:none;stroke-width:0.22604544"
       id="P17"
       cx="733.95416"
       cy="-370.27921"
       rx="8.598958"
       ry="7.5406246"
       inkscape:label="#path13043" />
    <ellipse
       style="fill:none;stroke-width:0.22604544"
       id="P18"
       cx="737.12915"
       cy="-417.90417"
       rx="8.598958"
       ry="7.5406246"
       inkscape:label="#path13043" />
    <ellipse
       style="fill:none;stroke-width:0.22604544"
       id="P19"
       cx="766.23334"
       cy="-339.05838"
       rx="8.598958"
       ry="7.5406246"
       inkscape:label="#path13043" />
    <ellipse
       style="fill:none;stroke-width:0.22604544"
       id="SE03D"
       cx="737.12915"
       cy="-463.41254"
       inkscape:label="#path13043"
       ry="7.5406246"
       rx="8.598958" />
    <ellipse
       style="fill:none;stroke-width:0.22604544"
       id="LIFTD"
       cx="816.50415"
       cy="-400.97089"
       rx="8.598958"
       ry="7.5406246"
       inkscape:label="#path13043" />
    <ellipse
       style="fill:none;stroke-width:0.22604544"
       id="P20"
       cx="827.08746"
       cy="-336.94171"
       rx="8.598958"
       ry="7.5406246"
       inkscape:label="#path13043" />
    <ellipse
       style="fill:none;stroke-width:0.22604544"
       id="SE05D"
       cx="875.77087"
       cy="-365.51672"
       rx="8.598958"
       ry="7.5406246"
       inkscape:label="#path13043" />
    <ellipse
       style="fill:none;stroke-width:0.22604544"
       id="P21"
       cx="875.2417"
       cy="-300.95837"
       rx="8.598958"
       ry="7.5406246"
       inkscape:label="#path13043" />
    <ellipse
       style="fill:none;stroke-width:0.22604544"
       id="P22"
       cx="906.9917"
       cy="-242.75003"
       rx="8.598958"
       ry="7.5406246"
       inkscape:label="#path13043" />
    <ellipse
       style="fill:none;stroke-width:0.22604544"
       id="P23"
       cx="937.15411"
       cy="-200.94586"
       rx="8.598958"
       ry="7.5406246"
       inkscape:label="#path13043" />
    <ellipse
       style="fill:none;stroke-width:0.22604544"
       id="SE12D"
       cx="965.00336"
       cy="-184.94044"
       rx="8.598958"
       ry="7.5406246"
       inkscape:label="#path13043" />
    <ellipse
       style="fill:none;stroke-width:0.22604544"
       id="SE06D"
       cx="980.71881"
       cy="-220.48729"
       rx="8.598958"
       ry="7.5406246"
       inkscape:label="#path13043" />
    <ellipse
       style="fill:none;stroke-width:0.22604544"
       id="P24"
       cx="997.55676"
       cy="-198.03665"
       rx="8.598958"
       ry="7.5406246"
       inkscape:label="#path13043" />
    <ellipse
       style="fill:none;stroke-width:0.22604544"
       id="P25"
       cx="1042.8322"
       cy="-197.28828"
       rx="8.598958"
       ry="7.5406246"
       inkscape:label="#path13043" />
    <ellipse
       style="fill:none;stroke-width:0.22604544"
       id="P26"
       cx="1095.5912"
       cy="-195.7916"
       rx="8.598958"
       ry="7.5406246"
       inkscape:label="#path13043" />
    <ellipse
       style="fill:none;stroke-width:0.22604544"
       id="SE11D"
       cx="1105.694"
       cy="-164.73488"
       rx="8.598958"
       ry="7.5406246"
       inkscape:label="#path13043" />
    <ellipse
       style="fill:none;stroke-width:0.22604544"
       id="SE09D"
       cx="1119.9127"
       cy="-224.22906"
       rx="8.598958"
       ry="7.5406246"
       inkscape:label="#path13043" />
    <ellipse
       style="fill:none;stroke-width:0.22604544"
       id="SE07D"
       cx="1107.1907"
       cy="-237.32529"
       rx="8.598958"
       ry="7.5406246"
       inkscape:label="#path13043" />
    <ellipse
       style="fill:none;stroke-width:0.22604544"
       id="P27"
       cx="905.93335"
       cy="-163.37503"
       rx="8.598958"
       ry="7.5406246"
       inkscape:label="#path13043" />
    <ellipse
       style="fill:none;stroke-width:0.22604544"
       id="SE14D"
       cx="930.8042"
       cy="-82.412537"
       rx="8.598958"
       ry="7.5406246"
       inkscape:label="#path13043" />
    <ellipse
       style="fill:none;stroke-width:0.22604544"
       id="P28"
       cx="890.05829"
       cy="-102.52087"
       rx="8.598958"
       ry="7.5406246"
       inkscape:label="#path13043" />
    <ellipse
       style="fill:none;stroke-width:0.22604544"
       id="P29"
       cx="830.79169"
       cy="-101.99171"
       rx="8.598958"
       ry="7.5406246"
       inkscape:label="#path13043" />
    <ellipse
       style="fill:none;stroke-width:0.22604544"
       id="P30"
       cx="760.94159"
       cy="-101.9917"
       rx="8.598958"
       ry="7.5406246"
       inkscape:label="#path13043" />
    <ellipse
       style="fill:none;stroke-width:0.22604544"
       id="P31"
       cx="693.73749"
       cy="-102.52087"
       rx="8.598958"
       ry="7.5406246"
       inkscape:label="#path13043" />
    <ellipse
       style="fill:none;stroke-width:0.22604544"
       id="SE24D"
       cx="671.51251"
       cy="-83.470871"
       rx="8.598958"
       ry="7.5406246"
       inkscape:label="#path13043" />
    <ellipse
       style="fill:none;stroke-width:0.22604544"
       id="P32"
       cx="641.87915"
       cy="-102.52087"
       rx="8.598958"
       ry="7.5406246"
       inkscape:label="#path13043" />
    <ellipse
       style="fill:none;stroke-width:0.22604544"
       id="P15"
       cx="650.875"
       cy="-304.13339"
       rx="8.598958"
       ry="7.5406246"
       inkscape:label="#path13043" />
    <path
       style="fill:#decd87;stroke:#000000;stroke-width:0.26458332px;stroke-linecap:butt;stroke-linejoin:miter;stroke-opacity:1"
       d="m 330.8055,-117.87279 45.07073,0.006 2.57756,-0.0234 -0.009,36.272241 59.2127,53.146377 20.10258,18.173806 114.62023,103.379996 292.48088,-0.05008 28.40676,0.04677 69.26572,0.0033 -0.004,-18.474996 21.09809,18.969384 23.17225,20.965592 26.4477,23.79491 -23.1048,0.0117 -45.10586,-0.0234 -61.29036,0.0234 -36.76415,-0.0234 -157.88607,-0.007 h -36.9061 -16.28795 l -36.75446,-0.005 -67.56784,0.005 L 413.91623,14.186288 387.90551,-9.3001869 328.29229,-62.999841 l 0.0175,-54.878799 z"
       id="COR4"
       inkscape:connector-curvature="0"
       sodipodi:nodetypes="cccccccccccccccccccccccccccc"
       inkscape:label="#path13041" />
    <ellipse
       style="fill:none;stroke-width:0.22604544"
       id="P33"
       cx="354.01251"
       cy="-96.170876"
       rx="8.598958"
       ry="7.5406246"
       inkscape:label="#path13043" />
    <ellipse
       style="fill:none;stroke-width:0.22604544"
       id="P34"
       cx="369.35834"
       cy="-57.541702"
       rx="8.598958"
       ry="7.5406246"
       inkscape:label="#path13043" />
    <ellipse
       style="fill:none;stroke-width:0.22604544"
       id="P35"
       cx="401.63748"
       cy="-27.379204"
       rx="8.598958"
       ry="7.5406246"
       inkscape:label="#path13043" />
    <ellipse
       style="fill:none;stroke-width:0.22604544"
       id="SE20D"
       cx="409.57501"
       cy="-6.2125382"
       rx="8.598958"
       ry="7.5406246"
       inkscape:label="#path13043" />
    <ellipse
       style="fill:none;stroke-width:0.22604544"
       id="SE21D"
       cx="438.14999"
       cy="-10.445871"
       rx="8.598958"
       ry="7.5406246"
       inkscape:label="#path13043" />
    <ellipse
       style="fill:none;stroke-width:0.22604544"
       id="P36"
       cx="445.02914"
       cy="12.837461"
       rx="8.598958"
       ry="7.5406246"
       inkscape:label="#path13043" />
    <ellipse
       style="fill:none;stroke-width:0.22604544"
       id="P37"
       cx="483.12915"
       cy="48.291626"
       rx="8.598958"
       ry="7.5406246"
       inkscape:label="#path13043" />
    <ellipse
       style="fill:none;stroke-width:0.22604544"
       id="P38"
       cx="523.875"
       cy="84.274963"
       rx="8.598958"
       ry="7.5406246"
       inkscape:label="#path13043" />
    <ellipse
       style="fill:none;stroke-width:0.22604544"
       id="P39"
       cx="565.14996"
       cy="116.02496"
       rx="8.598958"
       ry="7.5406246"
       inkscape:label="#path13043" />
    <ellipse
       style="fill:none;stroke-width:0.22604544"
       id="P40"
       cx="618.41333"
       cy="116.67307"
       rx="8.598958"
       ry="7.5406246"
       inkscape:label="#path13043" />
    <ellipse
       style="fill:none;stroke-width:0.22604544"
       id="SE19D"
       cx="639.8432"
       cy="127.12344"
       rx="8.598958"
       ry="7.5406246"
       inkscape:label="#path13043" />
    <ellipse
       style="fill:none;stroke-width:0.22604544"
       id="SE18D"
       cx="689.50415"
       cy="128.72496"
       rx="8.598958"
       ry="7.5406246"
       inkscape:label="#path13043" />
    <ellipse
       style="fill:none;stroke-width:0.22604544"
       id="P42"
       cx="727.60419"
       cy="118.14163"
       rx="8.598958"
       ry="7.5406246"
       inkscape:label="#path13043" />
    <ellipse
       style="fill:none;stroke-width:0.22604544"
       id="P43"
       cx="784.75415"
       cy="119.72913"
       rx="8.598958"
       ry="7.5406246"
       inkscape:label="#path13043" />
    <ellipse
       style="fill:none;stroke-width:0.22604544"
       id="P44"
       cx="842.43329"
       cy="119.72912"
       rx="8.598958"
       ry="7.5406246"
       inkscape:label="#path13043" />
    <ellipse
       style="fill:none;stroke-width:0.22604544"
       id="P41"
       cx="668.33746"
       cy="117.61246"
       rx="8.598958"
       ry="7.5406246"
       inkscape:label="#path13043" />
    <ellipse
       style="fill:none;stroke-width:0.22604544"
       id="SE15D"
       cx="878.41663"
       cy="102.26662"
       rx="8.598958"
       ry="7.5406246"
       inkscape:label="#path13043" />
    <ellipse
       style="fill:none;stroke-width:0.22604544"
       id="SE17D"
       cx="885.82501"
       cy="129.78329"
       rx="8.598958"
       ry="7.5406246"
       inkscape:label="#path13043" />
    <ellipse
       style="fill:none;stroke-width:0.22604544"
       id="P45"
       cx="911.22504"
       cy="119.72913"
       rx="8.598958"
       ry="7.5406246"
       inkscape:label="#path13043" />
    <ellipse
       style="fill:none;stroke-width:0.22604544"
       id="P46"
       cx="957.26245"
       cy="120.25829"
       rx="8.598958"
       ry="7.5406246"
       inkscape:label="#path13043" />
    <ellipse
       style="fill:none;stroke-width:0.22604544"
       id="SE16D"
       cx="987.95416"
       cy="130.84163"
       rx="8.598958"
       ry="7.5406246"
       inkscape:label="#path13043" />
    <ellipse
       style="fill:none;stroke-width:0.22604544"
       id="SE14D1"
       cx="986.89581"
       cy="109.14579"
       rx="8.598958"
       ry="7.5406246"
       inkscape:label="#path13043" />
    <path
       style="fill:#decd87;stroke:#000000;stroke-width:0.26458332px;stroke-linecap:butt;stroke-linejoin:miter;stroke-opacity:1"
       d="m 174.13933,-263.96099 -4.6e-4,15.55899 121.88005,-0.008 v 17.94823 l -0.002,60.78025 -0.006,15.99172 H 174.145 l -0.006,142.058601 -71.94527,0.0084 -65.681906,-0.0084 -26.9946968,-0.0051 -0.01946,-88.484311 9.736e-4,-37.47324 0.011693,-126.36683 27.2214432,-1.5e-4 65.404073,0.0118 z"
       id="COR1"
       inkscape:connector-curvature="0"
       sodipodi:nodetypes="ccccccccccccccccc"
       inkscape:label="#path13035" />
    <ellipse
       style="fill:none;stroke-width:0.22604544"
       id="E2"
       cx="32.543747"
       cy="-118.92503"
       rx="8.598958"
       ry="7.5406246"
       inkscape:label="#path13043" />
    <ellipse
       style="fill:none;stroke-width:0.22604544"
       id="E3"
       cx="71.70208"
       cy="-239.04587"
       rx="8.598958"
       ry="7.5406246"
       inkscape:label="#path13043" />
    <ellipse
       style="fill:none;stroke-width:0.22604544"
       id="P1"
       cx="69.513428"
       cy="-88.872131"
       rx="8.598958"
       ry="7.5406246"
       inkscape:label="#path13043" />
    <ellipse
       style="fill:none;stroke-width:0.22604544"
       id="P2"
       cx="69.449219"
       cy="-142.73753"
       rx="8.598958"
       ry="7.5406246"
       inkscape:label="#path13043" />
    <ellipse
       style="fill:none;stroke-width:0.22604544"
       id="P3"
       cx="70.424561"
       cy="-191.1375"
       rx="8.598958"
       ry="7.5406246"
       inkscape:label="#path13043" />
    <ellipse
       style="fill:none;stroke-width:0.22604544"
       id="P4"
       cx="132.82083"
       cy="-194.06671"
       rx="8.598958"
       ry="7.5406246"
       inkscape:label="#path13043" />
    <ellipse
       style="fill:none;stroke-width:0.22604544"
       id="P5"
       cx="193.14583"
       cy="-194.59586"
       rx="8.598958"
       ry="7.5406246"
       inkscape:label="#path13043" />
    <ellipse
       style="fill:none;stroke-width:0.22604544"
       id="P6"
       cx="258.76248"
       cy="-193.53754"
       rx="8.598958"
       ry="7.5406246"
       inkscape:label="#path13043" />
    <ellipse
       style="fill:none;stroke-width:0.22604544"
       id="E1"
       cx="69.453133"
       cy="-36.771908"
       rx="8.598958"
       ry="7.5406246"
       inkscape:label="#path13043" />
    <flowRoot
       xml:space="preserve"
       id="SE03TEXT"
       style="font-style:normal;font-weight:normal;font-size:40px;line-height:1.25;font-family:sans-serif;letter-spacing:0px;word-spacing:0px;fill:#000000;fill-opacity:1;stroke:none"
       transform="matrix(0.94940095,0,0,1.0720624,-1888.7181,-958.98723)"
       inkscape:label="#flowRoot16969"><flowRegion
         id="flowRegion16971"><rect
           id="rect16973"
           width="673.16565"
           height="260.2153"
           x="2845.3977"
           y="323.18961" /></flowRegion><flowPara
         id="flowPara16975">SE03</flowPara></flowRoot>    <flowRoot
       xml:space="preserve"
       id="SE02TEXT"
       style="font-style:normal;font-weight:normal;font-size:40px;line-height:1.25;font-family:sans-serif;letter-spacing:0px;word-spacing:0px;fill:#000000;fill-opacity:1;stroke:none"
       transform="matrix(0.23572592,-0.24302473,0.26271131,0.21632365,-261.94112,-103.68395)"
       inkscape:label="#flowRoot17998"><flowRegion
         id="flowRegion18000"><rect
           id="rect18002"
           width="288.49957"
           height="56.568542"
           x="2032.2249"
           y="1324.4528" /></flowRegion><flowPara
         id="flowPara18004">SE02</flowPara></flowRoot>    <flowRoot
       xml:space="preserve"
       id="SE20ATEXT"
       style="font-style:normal;font-weight:normal;font-size:40px;line-height:1.25;font-family:sans-serif;letter-spacing:0px;word-spacing:0px;fill:#000000;fill-opacity:1;stroke:none"
       transform="matrix(0.371959,0,0,0.53764304,-98.432671,-1321.8896)"
       inkscape:label="#flowRoot17978"><flowRegion
         id="flowRegion17980"><rect
           id="rect17982"
           width="255.26555"
           height="71.417786"
           x="869.74133"
           y="2260.6621" /></flowRegion><flowPara
         id="flowPara17984">SE20A</flowPara></flowRoot>    <flowRoot
       xml:space="preserve"
       id="SE22TEXT"
       style="font-style:normal;font-weight:normal;font-size:40px;line-height:1.25;font-family:sans-serif;letter-spacing:0px;word-spacing:0px;fill:#000000;fill-opacity:1;stroke:none"
       transform="matrix(0.30738892,0,0,0.35746251,-53.399909,-901.08204)"
       inkscape:label="#flowRoot18044"><flowRegion
         id="flowRegion18046"><rect
           id="rect18048"
           width="197.86909"
           height="66.192001"
           x="1465.5996"
           y="2159.1147" /></flowRegion><flowPara
         id="flowPara18050">SE22</flowPara></flowRoot>    <flowRoot
       xml:space="preserve"
       id="SE20TEXT"
       style="font-style:normal;font-weight:normal;font-size:40px;line-height:1.25;font-family:sans-serif;letter-spacing:0px;word-spacing:0px;fill:#000000;fill-opacity:1;stroke:none"
       transform="matrix(0.45837629,0,0,0.50913953,-226.53809,-1383.5588)"
       inkscape:label="#flowRoot17163"><flowRegion
         id="flowRegion17165"><rect
           id="rect17167"
           width="214"
           height="153"
           x="1232"
           y="2852.5276" /></flowRegion><flowPara
         id="flowPara17169">SE20</flowPara></flowRoot>    <flowRoot
       xml:space="preserve"
       id="SE21TEXT"
       style="font-style:normal;font-weight:normal;font-size:40px;line-height:1.25;font-family:sans-serif;letter-spacing:0px;word-spacing:0px;fill:#000000;fill-opacity:1;stroke:none"
       transform="matrix(0.31102667,0,0,0.35746251,-62.700725,-929.6405)"
       inkscape:label="#flowRoot18018"><flowRegion
         id="flowRegion18020"><rect
           id="rect18022"
           width="165"
           height="55.5"
           x="1640.5"
           y="2435.0276" /></flowRegion><flowPara
         id="flowPara18024">SE21</flowPara></flowRoot>    <flowRoot
       xml:space="preserve"
       id="SE24TEXT"
       style="font-style:normal;font-weight:normal;font-size:40px;line-height:1.25;font-family:sans-serif;letter-spacing:0px;word-spacing:0px;fill:#000000;fill-opacity:1;stroke:none"
       transform="matrix(0.50777659,0,0,0.6761498,-663.19831,-1842.4704)"
       inkscape:label="#flowRoot18066"><flowRegion
         id="flowRegion18068"><rect
           id="rect18070"
           width="388.32367"
           height="193.35574"
           x="2769.0303"
           y="2710.3821" /></flowRegion><flowPara
         id="flowPara18072">SE24</flowPara></flowRoot>    <flowRoot
       xml:space="preserve"
       id="SE19TEXT"
       style="font-style:normal;font-weight:normal;font-size:40px;line-height:1.25;font-family:sans-serif;letter-spacing:0px;word-spacing:0px;fill:#000000;fill-opacity:1;stroke:none"
       transform="matrix(0.37493765,0,0,0.58837316,-197.35421,-1802.0298)"
       inkscape:label="#flowRoot17153"><flowRegion
         id="flowRegion17155"><rect
           id="rect17157"
           width="356.38181"
           height="138.59293"
           x="1948.7863"
           y="3400.5183" /></flowRegion><flowPara
         id="flowPara17159">SE19</flowPara></flowRoot>    <flowRoot
       xml:space="preserve"
       id="flowRoot17143"
       style="font-style:normal;font-weight:normal;font-size:40px;line-height:1.25;font-family:sans-serif;letter-spacing:0px;word-spacing:0px;fill:#000000;fill-opacity:1;stroke:none"
       transform="matrix(0.38227938,0,0,0.461453,-325.29379,-1335.6275)"><flowRegion
         id="flowRegion17145"><rect
           id="rect17147"
           width="271.52899"
           height="132.22897"
           x="2771.1514"
           y="3336.8787" /></flowRegion><flowPara
         id="flowPara17149">SE18</flowPara></flowRoot>    <flowRoot
       xml:space="preserve"
       id="SE17TEXT"
       style="font-style:normal;font-weight:normal;font-size:40px;line-height:1.25;font-family:sans-serif;letter-spacing:0px;word-spacing:0px;fill:#000000;fill-opacity:1;stroke:none"
       transform="matrix(0.35598771,0,0,0.48406917,-306.42522,-1459.496)"
       inkscape:label="#flowRoot17133"><flowRegion
         id="flowRegion17135"><rect
           id="rect17137"
           width="180.5"
           height="89.5"
           x="3366"
           y="3435.5276" /></flowRegion><flowPara
         id="flowPara17139">SE17</flowPara></flowRoot>    <flowRoot
       xml:space="preserve"
       id="SE15TEXT"
       style="font-style:normal;font-weight:normal;font-size:40px;line-height:1.25;font-family:sans-serif;letter-spacing:0px;word-spacing:0px;fill:#000000;fill-opacity:1;stroke:none"
       transform="matrix(0.21873556,0,0,0.2295564,152.85397,-600.71791)"
       inkscape:label="#flowRoot17113"><flowRegion
         id="flowRegion17115"><rect
           id="rect17117"
           width="147.07822"
           height="89.095451"
           x="3288.0466"
           y="2826.3477" /></flowRegion><flowPara
         id="flowPara17119">SE15</flowPara></flowRoot>    <flowRoot
       xml:space="preserve"
       id="SE13TEXT"
       style="font-style:normal;font-weight:normal;font-size:40px;line-height:1.25;font-family:sans-serif;letter-spacing:0px;word-spacing:0px;fill:#000000;fill-opacity:1;stroke:none"
       transform="matrix(0.2159515,0,0,0.22091258,170.86206,-576.96705)"
       inkscape:label="#flowRoot17103"><flowRegion
         id="flowRegion17105"><rect
           id="rect17107"
           width="111"
           height="49"
           x="3489"
           y="2915.5276" /></flowRegion><flowPara
         id="flowPara17109">SE13</flowPara></flowRoot>    <flowRoot
       xml:space="preserve"
       id="SE16TEXT"
       style="font-style:normal;font-weight:normal;font-size:40px;line-height:1.25;font-family:sans-serif;letter-spacing:0px;word-spacing:0px;fill:#000000;fill-opacity:1;stroke:none"
       transform="matrix(0.31815923,0,0,0.36959625,-182.96528,-1071.8118)"
       inkscape:label="#flowRoot17123"><flowRegion
         id="flowRegion17125"><rect
           id="rect17127"
           width="245"
           height="65"
           x="3735"
           y="3437.5276" /></flowRegion><flowPara
         id="flowPara17129">SE16</flowPara></flowRoot>    <flowRoot
       xml:space="preserve"
       id="SE14TEXT"
       style="font-style:normal;font-weight:normal;font-size:40px;line-height:1.25;font-family:sans-serif;letter-spacing:0px;word-spacing:0px;fill:#000000;fill-opacity:1;stroke:none"
       transform="matrix(0.6387459,0,0,0.89779905,-1504.8243,-2392.2816)"
       inkscape:label="#flowRoot17093"><flowRegion
         id="flowRegion17095"><rect
           id="rect17097"
           width="638.15759"
           height="327.99957"
           x="4056"
           y="2647.5276" /></flowRegion><flowPara
         id="flowPara17099">SE14</flowPara></flowRoot>    <flowRoot
       xml:space="preserve"
       id="SE07TEXT"
       style="font-style:normal;font-weight:normal;font-size:40px;line-height:1.25;font-family:sans-serif;letter-spacing:0px;word-spacing:0px;fill:#000000;fill-opacity:1;stroke:none"
       transform="matrix(0.66758695,0,0,0.88257944,-1748.3209,-1390.3886)"
       inkscape:label="#flowRoot17017"><flowRegion
         id="flowRegion17019"><rect
           id="rect17021"
           width="404.46509"
           height="195.16147"
           x="4372.7485"
           y="1115.1492" /></flowRegion><flowPara
         id="flowPara17023">SE07</flowPara></flowRoot>    <flowRoot
       xml:space="preserve"
       id="SE08TEXT"
       style="font-style:normal;font-weight:normal;font-size:40px;line-height:1.25;font-family:sans-serif;letter-spacing:0px;word-spacing:0px;fill:#000000;fill-opacity:1;stroke:none"
       transform="matrix(0.26458333,0,0,0.26458333,2.6912286,-706.723)"
       inkscape:label="#flowRoot17043"><flowRegion
         id="flowRegion17045"><rect
           id="rect17047"
           width="118"
           height="59"
           x="3949"
           y="1556.5276" /></flowRegion><flowPara
         id="flowPara17049">SE08</flowPara></flowRoot>    <flowRoot
       xml:space="preserve"
       id="SEO6TEXT"
       style="font-style:normal;font-weight:normal;font-size:40px;line-height:1.25;font-family:sans-serif;letter-spacing:0px;word-spacing:0px;fill:#000000;fill-opacity:1;stroke:none"
       transform="matrix(0.26458333,0,0,0.26458333,3.7041666,-695.5917)"
       inkscape:label="#flowRoot17053"><flowRegion
         id="flowRegion17055"><rect
           id="rect17057"
           width="114"
           height="54"
           x="3655"
           y="1660.5276" /></flowRegion><flowPara
         id="flowPara17059">SE06</flowPara></flowRoot>    <flowRoot
       xml:space="preserve"
       id="SE12TEXT"
       style="font-style:normal;font-weight:normal;font-size:40px;line-height:1.25;font-family:sans-serif;letter-spacing:0px;word-spacing:0px;fill:#000000;fill-opacity:1;stroke:none"
       transform="matrix(0.22422583,0,0,0.2295564,159.16668,-604.65781)"
       inkscape:label="#flowRoot17073"><flowRegion
         id="flowRegion17075"><rect
           id="rect17077"
           width="108.5"
           height="48"
           x="3584"
           y="1917.0276" /></flowRegion><flowPara
         id="flowPara17079">SE12</flowPara></flowRoot>    <flowRoot
       xml:space="preserve"
       id="SE11TEXT"
       style="font-style:normal;font-weight:normal;font-size:40px;line-height:1.25;font-family:sans-serif;letter-spacing:0px;word-spacing:0px;fill:#000000;fill-opacity:1;stroke:none"
       transform="matrix(0.26458333,0,0,0.26458333,12.435417,-700.48649)"
       inkscape:label="#flowRoot17083"><flowRegion
         id="flowRegion17085"><rect
           id="rect17087"
           width="123.5"
           height="54"
           x="3899"
           y="2111.0276" /></flowRegion><flowPara
         id="flowPara17089">SE11</flowPara></flowRoot>    <flowRoot
       xml:space="preserve"
       id="SE05TEXT"
       style="font-style:normal;font-weight:normal;font-size:40px;line-height:1.25;font-family:sans-serif;letter-spacing:0px;word-spacing:0px;fill:#000000;fill-opacity:1;stroke:none"
       transform="matrix(0.69175485,0,0,0.88257948,-1582.9086,-1303.2052)"><flowRegion
         id="flowRegion16985"><rect
           id="rect16987"
           width="215.82309"
           height="153.66048"
           x="3722.2102"
           y="917.1593" /></flowRegion><flowPara
         id="flowPara16989">SE05</flowPara></flowRoot>    <flowRoot
       xml:space="preserve"
       id="SE01TEXT"
       style="font-style:normal;font-weight:normal;font-size:40px;line-height:1.25;font-family:sans-serif;letter-spacing:0px;word-spacing:0px;fill:#000000;fill-opacity:1;stroke:none"
       transform="matrix(0.85093055,0,0,1.0617983,-855.25614,-1374.5361)"
       inkscape:label="#flowRoot17988"><flowRegion
         id="flowRegion17990"><rect
           id="rect17992"
           width="816"
           height="416"
           x="1456"
           y="835.52753" /></flowRegion><flowPara
         id="flowPara17994">SE01</flowPara></flowRoot>    <flowRoot
       xml:space="preserve"
       id="SE23TEXT"
       style="font-style:normal;font-weight:normal;font-size:40px;line-height:1.25;font-family:sans-serif;letter-spacing:0px;word-spacing:0px;fill:#000000;fill-opacity:1;stroke:none"
       transform="matrix(0.6428502,0,0,0.85747709,-727.99854,-2199.1052)"
       inkscape:label="#flowRoot18054"><flowRegion
         id="flowRegion18056"><rect
           id="rect18058"
           width="404.46509"
           height="145.664"
           x="1961.5142"
           y="2527.9485" /></flowRegion><flowPara
         id="flowPara18060">SE23</flowPara></flowRoot>    <flowRoot
       xml:space="preserve"
       id="SE09TEXT"
       style="font-style:normal;font-weight:normal;font-size:40px;line-height:1.25;font-family:sans-serif;letter-spacing:0px;word-spacing:0px;fill:#000000;fill-opacity:1;stroke:none"
       transform="matrix(0.52297395,0,0,0.63165429,-1173.5344,-1368.7243)"
       inkscape:label="#flowRoot17063"><flowRegion
         id="flowRegion17065"><rect
           id="rect17067"
           width="280"
           height="144"
           x="4578"
           y="1825.5276" /></flowRegion><flowPara
         id="flowPara17069">SE09</flowPara></flowRoot>  </g>
</svg>
